HIERARCHY
ROOT mPelvis
{
	OFFSET 0.000000 1.067000 -0.000000
	CHANNELS 6 Xposition Yposition Zposition Xrotation Yrotation Zrotation
	JOINT mTorso
	{
		OFFSET 0.000000 0.084000 -0.000000
		CHANNELS 3 Xrotation Yrotation Zrotation
		JOINT mChest
		{
			OFFSET 0.000000 0.205000 -0.015000
			CHANNELS 3 Xrotation Yrotation Zrotation
			JOINT mNeck
			{
				OFFSET 0.000000 0.251000 -0.010000
				CHANNELS 3 Xrotation Yrotation Zrotation
				JOINT mHead
				{
					OFFSET 0.000000 0.076000 0.000000
					CHANNELS 3 Xrotation Yrotation Zrotation
					JOINT mSkull
					{
						OFFSET 0.000000 0.079000 0.000000
						CHANNELS 3 Xrotation Yrotation Zrotation
						End Site
						{
							OFFSET -0.000000 -0.100000 0.000000
						}
					}
					JOINT mEyeRight
					{
						OFFSET -0.036000 0.079000 0.098000
						CHANNELS 3 Xrotation Yrotation Zrotation
						End Site
						{
							OFFSET -0.000000 -0.100000 0.000000
						}
					}
					JOINT mEyeLeft
					{
						OFFSET 0.036000 0.079000 0.098000
						CHANNELS 3 Xrotation Yrotation Zrotation
						End Site
						{
							OFFSET -0.000000 -0.100000 0.000000
						}
					}
					JOINT HEAD
					{
						OFFSET 0.000000 0.070000 0.020000
						CHANNELS 3 Xrotation Yrotation Zrotation
						End Site
						{
							OFFSET -0.000000 -0.100000 0.000000
						}
					}
				}
				JOINT NECK
				{
					OFFSET 0.000000 0.020000 0.000000
					CHANNELS 3 Xrotation Yrotation Zrotation
					End Site
					{
						OFFSET -0.000000 -0.100000 0.000000
					}
				}
			}
			JOINT mCollarLeft
			{
				OFFSET 0.085000 0.165000 -0.021000
				CHANNELS 3 Xrotation Yrotation Zrotation
				JOINT mShoulderLeft
				{
					OFFSET 0.079000 0.000000 -0.000000
					CHANNELS 3 Xrotation Yrotation Zrotation
					JOINT mElbowLeft
					{
						OFFSET 0.248000 0.000000 -0.000000
						CHANNELS 3 Xrotation Yrotation Zrotation
						JOINT mWristLeft
						{
							OFFSET 0.205000 0.000000 -0.000000
							CHANNELS 3 Xrotation Yrotation Zrotation
							JOINT L_HAND
							{
								OFFSET 0.050000 0.000000 0.010000
								CHANNELS 3 Xrotation Yrotation Zrotation
								End Site
								{
									OFFSET 0.000000 -0.100000 0.000000
								}
							}
						}
						JOINT L_LOWER_ARM
						{
							OFFSET 0.100000 0.000000 -0.000000
							CHANNELS 3 Xrotation Yrotation Zrotation
							End Site
							{
								OFFSET 0.000000 -0.100000 0.000000
							}
						}
					}
					JOINT L_UPPER_ARM
					{
						OFFSET 0.120000 0.010000 -0.000000
						CHANNELS 3 Xrotation Yrotation Zrotation
						End Site
						{
							OFFSET 0.000000 -0.100000 0.000000
						}
					}
				}
				JOINT L_CLAVICLE
				{
					OFFSET 0.000000 0.020000 0.020000
					CHANNELS 3 Xrotation Yrotation Zrotation
					End Site
					{
						OFFSET -0.000000 -0.100000 0.000000
					}
				}
			}
			JOINT mCollarRight
			{
				OFFSET -0.085000 0.165000 -0.021000
				CHANNELS 3 Xrotation Yrotation Zrotation
				JOINT mShoulderRight
				{
					OFFSET -0.079000 0.000000 0.000000
					CHANNELS 3 Xrotation Yrotation Zrotation
					JOINT mElbowRight
					{
						OFFSET -0.248000 0.000000 0.000000
						CHANNELS 3 Xrotation Yrotation Zrotation
						JOINT mWristRight
						{
							OFFSET -0.205000 0.000000 0.000000
							CHANNELS 3 Xrotation Yrotation Zrotation
							JOINT R_HAND
							{
								OFFSET -0.050000 0.000000 0.010000
								CHANNELS 3 Xrotation Yrotation Zrotation
								End Site
								{
									OFFSET 0.000000 -0.100000 0.000000
								}
							}
						}
						JOINT R_LOWER_ARM
						{
							OFFSET -0.100000 0.000000 0.000000
							CHANNELS 3 Xrotation Yrotation Zrotation
							End Site
							{
								OFFSET 0.000000 -0.100000 0.000000
							}
						}
					}
					JOINT R_UPPER_ARM
					{
						OFFSET -0.120000 0.010000 0.000000
						CHANNELS 3 Xrotation Yrotation Zrotation
						End Site
						{
							OFFSET 0.000000 -0.100000 0.000000
						}
					}
				}
				JOINT R_CLAVICLE
				{
					OFFSET 0.000000 0.020000 0.020000
					CHANNELS 3 Xrotation Yrotation Zrotation
					End Site
					{
						OFFSET -0.000000 -0.100000 0.000000
					}
				}
			}
			JOINT CHEST
			{
				OFFSET 0.000000 0.070000 0.028000
				CHANNELS 3 Xrotation Yrotation Zrotation
				End Site
				{
					OFFSET -0.000000 -0.100000 0.000000
				}
			}
			JOINT LEFT_PEC
			{
				OFFSET 0.082000 0.042000 0.119000
				CHANNELS 3 Xrotation Yrotation Zrotation
				End Site
				{
					OFFSET 0.000000 -0.100000 0.000000
				}
			}
			JOINT RIGHT_PEC
			{
				OFFSET -0.082000 0.042000 0.119000
				CHANNELS 3 Xrotation Yrotation Zrotation
				End Site
				{
					OFFSET 0.000000 -0.100000 0.000000
				}
			}
			JOINT UPPER_BACK
			{
				OFFSET 0.000000 0.017253 0.000000
				CHANNELS 3 Xrotation Yrotation Zrotation
				End Site
				{
					OFFSET -0.000000 -0.100000 0.000000
				}
			}
		}
		JOINT BELLY
		{
			OFFSET 0.000000 0.040000 0.028000
			CHANNELS 3 Xrotation Yrotation Zrotation
			End Site
			{
				OFFSET -0.000000 -0.100000 0.000000
			}
		}
		JOINT LOWER_BACK
		{
			OFFSET 0.000000 0.022848 -0.000000
			CHANNELS 3 Xrotation Yrotation Zrotation
			End Site
			{
				OFFSET -0.000000 -0.100000 0.000000
			}
		}
	}
	JOINT mHipRight
	{
		OFFSET -0.129000 -0.041000 0.034000
		CHANNELS 3 Xrotation Yrotation Zrotation
		JOINT mKneeRight
		{
			OFFSET 0.049000 -0.491000 -0.001000
			CHANNELS 3 Xrotation Yrotation Zrotation
			JOINT mAnkleRight
			{
				OFFSET -0.000000 -0.468000 -0.029000
				CHANNELS 3 Xrotation Yrotation Zrotation
				JOINT mFootRight
				{
					OFFSET 0.000000 -0.061000 0.112000
					CHANNELS 3 Xrotation Yrotation Zrotation
					JOINT mToeRight
					{
						OFFSET 0.000000 0.000000 0.109000
						CHANNELS 3 Xrotation Yrotation Zrotation
						End Site
						{
							OFFSET -0.000000 -0.100000 0.000000
						}
					}
				}
				JOINT R_FOOT
				{
					OFFSET 0.000000 -0.041000 0.077000
					CHANNELS 3 Xrotation Yrotation Zrotation
					End Site
					{
						OFFSET 0.000000 -0.100000 0.000000
					}
				}
			}
			JOINT R_LOWER_LEG
			{
				OFFSET -0.000000 -0.200000 -0.020000
				CHANNELS 3 Xrotation Yrotation Zrotation
				End Site
				{
					OFFSET -0.000000 -0.100000 0.000000
				}
			}
		}
		JOINT R_UPPER_LEG
		{
			OFFSET 0.050000 -0.220000 -0.020000
			CHANNELS 3 Xrotation Yrotation Zrotation
			End Site
			{
				OFFSET -0.000000 -0.100000 0.000000
			}
		}
	}
	JOINT mHipLeft
	{
		OFFSET 0.127000 -0.041000 0.034000
		CHANNELS 3 Xrotation Yrotation Zrotation
		JOINT mKneeLeft
		{
			OFFSET -0.046000 -0.491000 -0.001000
			CHANNELS 3 Xrotation Yrotation Zrotation
			JOINT mAnkleLeft
			{
				OFFSET 0.001000 -0.468000 -0.029000
				CHANNELS 3 Xrotation Yrotation Zrotation
				JOINT mFootLeft
				{
					OFFSET 0.000000 -0.061000 0.112000
					CHANNELS 3 Xrotation Yrotation Zrotation
					JOINT mToeLeft
					{
						OFFSET 0.000000 0.000000 0.109000
						CHANNELS 3 Xrotation Yrotation Zrotation
						End Site
						{
							OFFSET -0.000000 -0.100000 0.000000
						}
					}
				}
				JOINT L_FOOT
				{
					OFFSET 0.000000 -0.041000 0.077000
					CHANNELS 3 Xrotation Yrotation Zrotation
					End Site
					{
						OFFSET 0.000000 -0.100000 0.000000
					}
				}
			}
			JOINT L_LOWER_LEG
			{
				OFFSET -0.000000 -0.200000 -0.020000
				CHANNELS 3 Xrotation Yrotation Zrotation
				End Site
				{
					OFFSET -0.000000 -0.100000 0.000000
				}
			}
		}
		JOINT L_UPPER_LEG
		{
			OFFSET -0.050000 -0.220000 -0.020000
			CHANNELS 3 Xrotation Yrotation Zrotation
			End Site
			{
				OFFSET -0.000000 -0.100000 0.000000
			}
		}
	}
	JOINT PELVIS
	{
		OFFSET -0.000000 -0.020000 -0.010000
		CHANNELS 3 Xrotation Yrotation Zrotation
		End Site
		{
			OFFSET -0.000000 -0.100000 0.000000
		}
	}
	JOINT BUTT
	{
		OFFSET -0.000000 -0.100000 -0.060000
		CHANNELS 3 Xrotation Yrotation Zrotation
		End Site
		{
			OFFSET -0.000000 -0.100000 0.000000
		}
	}
}
MOTION
Frames: 4
Frame Time: 0.022222
-0.000000 -19.670601 7.945948 5.899764 0.034484 1.869499 18.730998 -0.424118 -3.412597 -15.176754 -0.055760 0.600307 -17.771966 19.348944 -0.400158 -0.106233 39.243712 -7.343457 0.000003 0.000020 -179.999991 0.000000 0.000000 0.000002 0.000000 0.000000 0.000002 0.000000 0.000000 0.000002 0.000000 -0.000000 -0.000000 -17.397643 -13.467816 21.622675 -12.173120 -53.942648 0.593892 -0.000019 -78.008574 -0.000014 -90.668876 12.760274 -22.189577 0.000002 -0.000000 -0.000002 -0.000001 0.000000 0.000000 -0.000001 -0.000000 0.000001 -0.000000 0.000000 -0.000001 12.865972 26.299512 -23.965623 13.980526 49.955737 -12.338071 0.000039 87.712681 -0.000123 -84.034898 -12.118765 20.893854 -0.000000 -0.000003 0.000001 -0.000000 0.000001 -0.000003 0.000007 -0.000000 -0.000001 -0.000000 0.000001 -0.000000 -0.000000 0.000000 -0.000000 0.000000 0.000000 -0.000000 0.000000 0.000000 0.000000 0.000000 0.000001 0.000000 0.000000 -0.000000 -0.000000 0.000000 0.000000 0.000000 -13.439759 -1.287115 -2.219768 95.500873 -3.666779 -3.770031 66.299813 3.927821 -5.315383 -0.000003 -0.000010 0.000017 -0.000000 -0.000000 0.000000 -0.000002 -0.000010 0.000019 0.000000 0.000000 -0.000000 0.000000 0.000002 0.000137 -13.199741 1.249031 -1.094046 95.314784 -3.525937 -3.896358 65.888369 1.191292 -7.055424 -0.000010 0.000028 -0.000048 0.000004 0.000001 0.000000 -0.000010 0.000027 -0.000051 0.000001 0.000001 -0.000001 0.000002 0.000002 -0.000100 0.000000 -0.000000 0.000000 0.000000 -0.000000 0.000000 
-0.000000 -19.670601 7.945948 5.811742 0.038560 2.181296 18.807875 -0.445369 -3.765638 -15.176757 -0.055760 0.600307 -17.629652 19.350891 -0.464363 -0.106233 39.243716 -7.343459 0.000003 0.000022 -179.999991 0.000000 0.000001 0.000001 0.000000 0.000001 0.000001 0.000000 0.000001 0.000001 0.000001 -0.000002 -0.000000 -17.397643 -13.467815 21.622678 -12.173114 -53.942648 0.593893 -0.000023 -78.008567 -0.000018 -90.668876 12.760270 -22.189580 0.000001 -0.000002 -0.000003 0.000003 -0.000000 0.000001 -0.000001 0.000002 0.000001 0.000003 0.000001 -0.000001 13.224844 26.173599 -24.153038 13.980521 49.955737 -12.338071 0.000006 87.514080 -0.000073 -83.989136 -12.042500 21.345516 -0.000000 0.000002 -0.000000 -0.000001 0.000000 -0.000001 0.000004 -0.000001 0.000000 -0.000000 0.000004 -0.000001 -0.000000 0.000000 0.000000 -0.000000 0.000000 0.000000 -0.000001 -0.000000 0.000000 -0.000000 0.000000 0.000000 -0.000004 0.000000 0.000000 -0.000004 0.000000 -0.000000 -13.349748 -1.272849 -2.566101 95.500873 -3.666778 -3.770031 66.385682 4.299668 -5.212712 0.000001 -0.000005 0.000008 -0.000001 -0.000000 -0.000000 -0.000001 -0.000005 0.000010 0.000001 -0.000001 -0.000000 -0.000000 0.000002 0.000137 -13.108696 1.244096 -1.307117 95.314791 -3.525938 -3.896359 65.924207 0.969499 -7.202291 -0.000020 0.000029 -0.000055 0.000005 0.000000 -0.000000 -0.000018 0.000030 -0.000055 0.000001 0.000001 0.000000 0.000001 0.000002 -0.000100 0.000000 -0.000000 -0.000000 0.000000 -0.000000 -0.000000 
-0.000000 -19.670601 7.945948 5.723687 0.042158 2.493139 18.884631 -0.467096 -4.118708 -15.176755 -0.055760 0.600307 -17.473724 19.351765 -0.527681 -0.106233 39.243712 -7.343460 0.000002 0.000020 -179.999991 -0.000000 -0.000000 0.000000 -0.000000 -0.000000 0.000000 -0.000000 -0.000000 0.000000 0.000000 0.000001 -0.000000 -17.397643 -13.467812 21.622673 -12.173117 -53.942645 0.593891 -0.000027 -78.008567 -0.000020 -90.668876 12.760271 -22.189577 0.000000 0.000001 0.000001 -0.000001 -0.000002 0.000002 -0.000001 -0.000002 0.000001 0.000002 0.000001 -0.000002 13.578330 26.043342 -24.328077 13.980520 49.955737 -12.338072 0.000069 87.294660 -0.000103 -83.928524 -11.978862 21.822721 -0.000001 0.000000 -0.000000 -0.000000 0.000001 -0.000002 0.000002 -0.000001 -0.000001 -0.000001 -0.000000 0.000000 -0.000000 0.000000 0.000000 -0.000002 0.000000 0.000000 -0.000001 0.000000 0.000000 -0.000001 0.000000 0.000000 -0.000002 -0.000000 -0.000000 -0.000002 -0.000000 -0.000000 -13.259642 -1.259124 -2.912512 95.500873 -3.666778 -3.770031 66.448479 4.653206 -5.094551 0.000006 -0.000002 0.000003 0.000000 0.000000 0.000000 0.000006 -0.000001 0.000002 -0.000000 -0.000000 -0.000000 0.000001 0.000002 0.000138 -13.017666 1.238821 -1.520192 95.314791 -3.525938 -3.896360 65.943038 0.740785 -7.340562 -0.000015 0.000031 -0.000057 0.000003 0.000001 0.000000 -0.000014 0.000032 -0.000057 0.000001 0.000002 -0.000000 0.000000 0.000002 -0.000099 -0.000000 -0.000000 -0.000000 -0.000000 -0.000000 -0.000000 
-0.000000 -19.670601 7.945948 5.635603 0.045276 2.805022 18.961261 -0.489300 -4.471798 -15.176755 -0.055761 0.600307 -17.305918 19.351630 -0.589946 -0.106233 39.243709 -7.343459 0.000003 0.000020 -179.999991 0.000001 -0.000000 0.000001 0.000001 -0.000000 0.000001 0.000001 -0.000000 0.000001 0.000000 0.000002 -0.000000 -17.397641 -13.467813 21.622678 -12.173123 -53.942652 0.593896 -0.000027 -78.008567 -0.000010 -90.668876 12.760274 -22.189577 -0.000001 -0.000001 -0.000001 0.000002 0.000000 0.000000 -0.000001 0.000001 0.000003 0.000000 0.000000 0.000000 13.925478 25.909621 -24.491025 13.980520 49.955734 -12.338072 0.000022 87.057011 -0.000070 -83.854478 -11.926789 22.321441 -0.000000 0.000003 0.000001 -0.000000 -0.000000 -0.000001 0.000003 -0.000000 -0.000000 -0.000003 -0.000001 -0.000001 0.000000 -0.000000 0.000000 0.000000 -0.000000 0.000000 -0.000000 -0.000000 -0.000000 -0.000000 -0.000000 0.000000 0.000001 -0.000001 -0.000000 0.000001 -0.000001 -0.000000 -13.169439 -1.245943 -3.258987 95.500873 -3.666779 -3.770032 66.489815 4.988744 -4.962437 0.000001 0.000000 -0.000000 0.000001 0.000000 -0.000000 -0.000001 -0.000001 -0.000000 -0.000000 0.000000 0.000000 -0.000000 0.000003 0.000137 -12.926656 1.233208 -1.733271 95.314791 -3.525938 -3.896358 65.946296 0.506640 -7.470559 -0.000016 0.000032 -0.000055 0.000004 -0.000001 0.000000 -0.000015 0.000031 -0.000058 0.000001 0.000002 -0.000001 -0.000001 0.000002 -0.000098 -0.000000 -0.000000 -0.000000 -0.000000 -0.000000 -0.000000 
